<svg xmlns="http://www.w3.org/2000/svg" xmlns:xlink="http://www.w3.org/1999/xlink" id="visual" viewBox="0 0 900 600" preserveAspectRatio="none" version="1.1"><path d="M0 315L30 319.8C60 324.7 120 334.3 180 317.7C240 301 300 258 360 237.3C420 216.7 480 218.3 540 242.2C600 266 660 312 720 324.8C780 337.7 840 317.3 870 307.2L900 297L900 0L870 0C840 0 780 0 720 0C660 0 600 0 540 0C480 0 420 0 360 0C300 0 240 0 180 0C120 0 60 0 30 0L0 0Z" fill="#7958F8" stroke-linecap="round" stroke-linejoin="miter"/></svg>
