<svg id="visual" viewBox="0 0 900 600" width="900" height="600" xmlns="http://www.w3.org/2000/svg" xmlns:xlink="http://www.w3.org/1999/xlink" version="1.1"><rect x="0" y="0" width="900" height="600" fill="#7C5DF7"></rect><path d="M0 564L16.7 563.7C33.3 563.3 66.7 562.7 100 563.2C133.3 563.7 166.7 565.3 200 568C233.3 570.7 266.7 574.3 300 574.8C333.3 575.3 366.7 572.7 400 570.7C433.3 568.7 466.7 567.3 500 569.5C533.3 571.7 566.7 577.3 600 580.2C633.3 583 666.7 583 700 578.5C733.3 574 766.7 565 800 560.8C833.3 556.7 866.7 557.3 883.3 557.7L900 558L900 601L883.3 601C866.7 601 833.3 601 800 601C766.7 601 733.3 601 700 601C666.7 601 633.3 601 600 601C566.7 601 533.3 601 500 601C466.7 601 433.3 601 400 601C366.7 601 333.3 601 300 601C266.7 601 233.3 601 200 601C166.7 601 133.3 601 100 601C66.7 601 33.3 601 16.7 601L0 601Z" fill="#fff" stroke-linecap="round" stroke-linejoin="miter"></path></svg>