<svg xmlns="http://www.w3.org/2000/svg" version="1.0" viewBox="0 0 1024 1024">
    <path d="M283.7 278.7c-16 19.1-21.4 42.4-15.3 66.5 2.7 10.7 5.9 17.5 12.3 26.5 4.4 6.3 4.4 6.3 4.1 14l-.3 7.8-2.7-4.6c-7.9-13.4-19.8-25.4-33.5-33.5-6.6-3.9-21.1-10.4-23.2-10.4-.7 0-1.1 5.3-1.1 15.8 0 26.8 4.5 38.7 21 55.3 11.1 11.2 21 17.5 33 21l8 2.3v13.3c0 7.3-.3 13.3-.7 13.2-.5 0-3.7-4.1-7.3-9-11.6-16-25.5-27.2-43.2-34.4-4.5-1.9-8.9-3.5-9.5-3.5-1.9 0-1.7 21.4.3 33.1 2.9 17.3 8.3 28 19.9 39.5 6.4 6.4 10 9 17.1 12.6 5 2.5 12 5.1 15.6 5.8l6.7 1.3.3 16.3.3 16.2 8.4 16.6c7.2 14 8.5 17.4 8.8 22.3.3 4.5 0 6.5-1.6 8.9-2.7 4.4-11.9 10.8-29.6 20.4-37.8 20.8-44.8 24.8-56.8 32.7-26.9 17.7-37.4 33.2-39.4 58.5l-.6 7.8h34.8c32.7 0 34.7-.1 34-1.8-.4-.9-1.2-4.5-1.8-7.9-3.2-18 7.5-36.4 32.8-56.8 9.5-7.6 10.9-8.2 17.4-6.9l3.1.7-9 9.3c-22.7 23.5-27.2 41.8-16 64.9 2.2 4.4 9.1 15 15.4 23.5 6.4 8.5 11.6 15.8 11.6 16.2 0 .5 16 .8 35.5.8s35.5-.3 35.5-.6-3.4-3.8-7.6-7.7c-4.1-3.9-11.4-11.8-16-17.6-25.3-31.5-26-40.8-6.3-84.7 8.8-19.5 10.2-25.1 9.7-36.9-.7-15.8-5.6-23.6-30.3-48-17.8-17.5-19.8-21-20.3-36l-.4-10.1 6.8-1.3c18.9-3.5 37.3-17.2 45.6-34.1 6.4-13.1 8-20.3 8.5-39.8l.5-17.3-8.3 3.1c-4.6 1.6-11.7 4.9-15.7 7.3-8.7 4.9-23.8 18.7-30.2 27.7-2.5 3.4-5 6.9-5.7 7.8-1 1.4-1.2-1-1.3-11.9v-13.6l6.1-1.7c19.6-5.4 38.7-21.4 48-40.1 5.4-10.9 6.9-18.9 6.9-37.3V345l-2.7.6c-5 1.2-16.4 6.2-23.6 10.5-9.1 5.3-22.7 18.9-29.5 29.4l-5.2 7.9v-7.2c0-6.6.3-7.6 3.4-11.9 10.5-14.8 16.5-35.2 15.4-52.6-.7-9.9-4.4-21.6-9.8-30.7-4.4-7.4-13.9-19-15.5-19-.6 0-3.6 3-6.8 6.7zm11.1 20.2c6.6 12 8.8 27.8 5.7 41.1-1.6 6.8-8.2 22-9.6 22-1.4 0-7.8-14.2-9.5-21-2.4-9.6-1.5-25.3 2-34.4 2.7-7.2 6.3-13.6 7.5-13.6.3 0 2.1 2.7 3.9 5.9zm48.8 72.3c-1.8 15.5-8.5 28.9-19.7 39.2-6.1 5.7-20.2 13.6-21.6 12.2-1.1-1.1 3.5-15.5 7.7-24.2 4.9-10.1 15.4-21.7 25.9-28.6 4-2.6 7.6-4.8 7.9-4.8.2 0 .1 2.8-.2 6.2zm-89.1 5.4c7.4 6.2 13.1 13.3 17.3 21.9 3.1 6.2 6.5 15.6 7.7 21.3l.7 3.3-3.9-1.6c-15.1-6.3-25.1-15.2-31.3-27.9-3.8-7.7-6.9-18.8-7-24.9v-2.8l5 2.7c2.7 1.5 7.9 5.1 11.5 8zm-3.9 70.9c7.6 5.4 16.2 14.7 20.3 21.8 3 5.2 10.6 26.6 9.8 27.4-.9.8-11.7-3.9-17.4-7.6-14.1-9.1-23.2-24.7-25-42.5l-.6-6.8 3.4 1.7c1.9 1 6.1 3.7 9.5 6zm93.7-3.3c-2.2 18.9-11.4 35.3-24.7 44.2-5.5 3.6-16.2 8.3-17.1 7.4-.8-.8 4.7-17.2 8-23.8 4.4-8.8 10.4-16.1 17.7-21.8 5.8-4.6 14.6-10.1 16-10.2.3 0 .4 1.9.1 4.2zm-18.7 153.3c1 5.6-1.3 11.1-7.4 17.6-5.2 5.5-6.2 6.1-10.7 6.6l-5 .6 7.3-7.8c7.6-8 12.1-15.8 12.2-21 .1-2.8.1-2.9 1.5-1.1.8 1.1 1.7 3.4 2.1 5.1zM602.8 546.4c-5.3 1.9-8.3 4-11.2 7.9-5.3 6.9-5.6 9.5-5.6 42.1 0 17.6.4 31.6 1 33.8 1.6 5.6 6.9 11.9 12.5 14.7 5.7 3 17.3 4 24.2 2.2 5.7-1.6 12.3-6.8 15.3-12.1 2.5-4.5 2.5-4.5 2.8-36.2.2-20.5-.1-33.1-.8-35.7-1.5-5.6-6.7-12.1-12-15.1-3.7-2-6.2-2.5-13.5-2.7-5.9-.2-10.3.2-12.7 1.1zm17.4 17.5 3.3 2.9.3 26.9c.4 29-.1 32.8-4.5 36.2-3.7 3-7.9 2.7-11.4-.8l-2.9-2.9v-59.4l2.9-2.9c3.9-3.9 8-3.9 12.3 0zM737.4 547.4c-5.9 2.7-11.6 9-13.2 14.5-.8 2.6-1.2 14.3-1.2 35.7 0 35.2.2 36.5 6.6 42.8 5.8 5.7 9.9 7.1 20.9 7.1 11.1 0 14.8-1.2 20.5-6.8 6.8-6.6 7-7.5 7-44.3v-33l-2.6-5.2c-4.5-9.2-12.3-13.2-25.3-13.2-5.9 0-8.7.6-12.7 2.4zm17.7 14.6c4.5 2.5 4.9 5.3 4.9 33.8 0 17.1-.4 28.1-1.1 30.1-1.1 3.1-5.2 6.1-8.4 6.1s-7.3-3-8.4-6.1c-.7-2-1.1-12.9-1.1-29.6 0-27.7.6-31.8 4.7-34.2 2.3-1.3 6.9-1.4 9.4-.1zM388 596v50h18l.2-32.7.3-32.8 6.3 23.5c3.4 12.9 7 26.2 8 29.5l1.8 6 5.2.3c4.7.3 5.3.1 6.1-2 .5-1.3 4.2-14.7 8.2-29.8l7.4-27.5.3 32.7.2 32.8h18V545.9l-12.7.3-12.7.3-7 28.2c-3.9 15.6-7.4 28.3-7.7 28.3-.3 0-3.7-11.4-7.4-25.3-3.8-13.8-7.2-26.7-7.7-28.5l-.9-3.2H388v50zM482 596v50h19V546h-19v50zM515 596v50h17l.2-30.1.3-30.1 11.6 29.9 11.6 29.8 9.1.3 9.2.3V546H555.7l.5 28.5c.3 15.7.2 28.3-.1 27.9-.3-.3-5.5-13-11.6-28.2l-11-27.7-9.2-.3-9.3-.3V596zM647 555v9h18v82h18.5l-.3-41-.2-41h17v-18h-53v9zM707 546.2c0 .2-.7 5.7-1.5 12.3-.8 6.5-1.5 13.2-1.5 14.8 0 2.7.1 2.8 4.7 2.5l4.6-.3 3.8-12.5c2.1-6.9 4-13.5 4.4-14.8.5-2.1.3-2.2-7-2.2-4.1 0-7.5.1-7.5.2zM789 595.9V646h19v-39h2.9c2.7 0 3.1.5 4.5 5.2.9 2.9 3.5 11.6 5.9 19.3l4.4 14 9.6.3 9.6.3-7.1-20.6-7.1-20.6 3.6-3c1.9-1.6 4.6-5 5.9-7.6 2-4.2 2.3-6.3 2.3-16.3 0-13.2-1.2-17.5-6.1-23-6.1-6.7-11.4-8.3-30.6-8.8l-16.8-.5v50.2zm31.2-32c3.2 2.8 3.3 3.2 3.6 11.8.4 9.7-.6 13.4-4 15.7-2.4 1.6-11.7 2.6-11.8 1.3V561h4.5c3.5 0 5.2.6 7.7 2.9z"/></svg>
